<?xml version="1.0" encoding="UTF-8"?>
<svg version="1.1" viewBox="0 0 2048 2048" width="512" height="512" xmlns="http://www.w3.org/2000/svg">
<path transform="translate(337)" d="m0 0h1372l37 6 27 6 20 6 20 7 23 10 20 10 20 12 16 11 12 9 11 9 14 12 24 24 9 11 10 12 12 17 14 22 10 18 12 26 8 21 8 27 6 27 5 32 1 7v1363l-6 39-6 27-6 21-7 20-11 25-10 20-14 23-12 17-14 18-12 13-7 8-14 14-11 9-10 9-18 13-15 10-19 11-23 12-24 10-30 10-30 7-35 6-7 1h-1364l-26-4-28-5-30-8-23-8-23-10-22-11-20-12-16-11-16-12-15-13-15-14-10-10-7-8-12-14-14-19-10-15-10-17-12-23-8-19-10-28-7-26-6-32-3-21v-1372l8-45 8-30 9-26 10-23 10-20 14-23 13-19 9-11 8-10 12-13 24-24 11-9 18-14 15-10 13-8 18-10 16-8 24-10 27-9 24-6 33-6z" fill="#79E1FE"/>
<path transform="translate(337)" d="m0 0h809l-2 4-12 13-9 11-10 12-11 15-10 15-12 20-12 23-7 15-11 27-9 29-7 29-6 36-2 21-1 30v314l-1 303h-9l-15-5-13-8-13-11-6-4-6-2h-13l-10 5-6 5-5 8-2 6v11l4 9 6 8 12 12 15 10 12 6 19 7 16 4 14 2v149h-8l-14-3-30-4h-45l-29 4-25 6-24 8-17 7-16 8-16 9-12 8-11 8-9 7-13 11-17 17-18 22-11 16-11 18-11 23-9 24-4 13-3 6-11-1-28-4-14-1h-14l-27 2-26 5-25 7-16 6-20 9-20 11-16 11-3 1v2l-4 2-1 2-7 4-3 4-5 3-11 12-8 7-3 5-3 2-1 3-3 2-1 3-5 5-10 15-10 17-11 23-6 13-38 6-27 9-17 8-19 12-5 5-4 2-1 2h-3v2l-21 21-1 3-5 5-10 16-8 16-7 19-5 23-2 13v33l4 24 7 23 9 20 11 18 3 2 4 7 8 9 8 7 6 7 5 3 5 5 3 1v2h3l4 4 5 3 4 1 3 3 6 2v2l9 3 19 7 16 4 25 3h533l9-2 10-1 8-3 21-7 3-2h4v-2l4-2h3l-2 9-14 32-11 22-10 17-11 17-12 17-10 13-11 13-11 12-1 2h-2l-2 4-24 24-8 7-7 7-7 6-2 3h-460l-26-4-28-5-30-8-23-8-23-10-22-11-20-12-16-11-16-12-15-13-15-14-10-10-7-8-12-14-14-19-10-15-10-17-12-23-8-19-10-28-7-26-6-32-3-21v-1372l8-45 8-30 9-26 10-23 10-20 14-23 13-19 9-11 8-10 12-13 24-24 11-9 18-14 15-10 13-8 18-10 16-8 24-10 27-9 24-6 33-6z" fill="#15C08C"/>
<path transform="translate(927,1121)" d="m0 0h45l35 5 22 5 20 6 15 6 15 7 17 9 13 8 12 8 16 13 11 9 13 13 7 8 10 14 10 13 12 19 9 16 10 23 9 27 5 20 4 22 2 23v22l-2 26-4 25-6 24-8 23-11 24-9 17-13 20-9 12-9 11-12 13-13 13-20 16-13 9-15 9-23 12-25 10-25 8-14 3-3 1v6h2l2 12 1 11v17l-1 11-2 7-6 20-9 19-8 12-11 13-15 14-13 9-4 1v2l-7 3-24 8-5 2-17 2-2 1h-533l-25-3-22-6-20-8-2-1v-2l-6-1-3-2v-2l-5-1-8-5v-2h-3v-2l-4-1-7-6-5-4-7-8-8-7-8-10v-3l-4-2-9-15-7-14-5-12-6-20-4-24v-33l4-24 4-15 8-20 8-16 12-17h2l1-4 9-9 10-11h2v-2h3l2-4h3l1-3 15-10 16-9 20-8 16-5 24-4 14-1 2-6 8-18 10-19 6-10 8-12 6-8h2l1-4 3-1 1-4 4-4 5-6 8-7 10-11h3l2-4 5-4h3l2-4h3v-2l16-11 17-10 21-10 21-8 25-7 26-5 27-2h14l23 2 30 5 3-10 7-20 6-15 8-17 15-25 9-13 9-11 13-15 18-18 10-8 12-9 16-11 15-9 16-8 15-7 33-11 22-5z" fill="#CFD0FD"/>
<path transform="translate(1146)" d="m0 0h563l37 6 27 6 20 6 20 7 23 10 20 10 20 12 16 11 12 9 11 9 14 12 24 24 9 11 10 12 12 17 14 22 10 18 12 26 8 21 8 27 6 27 5 32 1 7v27l-20 1-8 1-44 2-16 2-22 3-23 5-31 8-16 5-21 7-28 11-26 12-18 10-16 8-11 7h-17l-2-3-1-22-4-26-6-26-9-25-9-20-10-18-12-17-11-14-14-15-9-9-22-18-20-13-18-10-19-9-26-9-33-7-20-3-31-1-18 1-25 4-23 6-21 7-25 11-20 11-15 10-13 10-11 9-19 19-11 14-9 12-10 16-10 19-9 20-4 6-10 3-22 3-21 6-18 7-21 11-13 9-13 11-4 4h-2l-2 4-10 11-12 17-8 15-6 15-5 15-3 14-2 14v39l4 24 6 19 8 18 8 14 8 11 8 10 9 10 4 3-1 6-5 13-1 7v24l5 14 9 13 10 9 16 8 10 2h17l15-4 10-5 11-9 7-9 11-22 39 1 307 1 2 1-4 72-4 44-1 8-1 1-8-1h-11l-11 6-7 6-11 14-10 15-8 14-5 14-3 14v15l3 12 6 12 5 7 3 5 2 3-14 20-13 16-9 10-21 21-11 9-9 8-18 13-15 10-21 12-19 10-28 13-16 8-25 14-17 11-18 12-17 13-12 9-13 11-8 7-11 9-8 5-8-8-7-8-8-8-11-9-15-12-11-7-20-12-16-8-16-7-24-8-11-3 2-1v-149l-14-1-16-4-19-7-14-7-14-10-15-15-5-8-2-6v-11l4-10 7-8 10-6 3-1h13l9 4 11 9 11 8 12 6 10 3 9 1v-617l1-30 3-28 5-29 7-29 7-23 10-26 8-18 12-24 12-20 8-12 12-17 18-22 11-12z" fill="#70DEBC"/>
<path transform="translate(1455,185)" d="m0 0 31 1 30 5 26 6 25 9 25 12 18 11 17 12 13 11 12 11 11 11 9 11 13 17 11 18 9 17 10 25 6 20 6 29 2 15 1 22 1 2 21 2 12 3 12 4 16 7 16 10 9 7 11 10 9 11 9 14 8 17 5 16 3 16 1 7v21l-3 17-5 16-7 17-7 12-10 13-19 19-13 9 1 6 6 15 3 11 1 8v9l-3 12-6 12-7 9-10 9-16 8-11 3h-19l-14-4-14-8-11-11-6-10-4-10-1-5v-25l3-11-13 1h-430l-39-1-7 16-6 9-8 9-13 9-15 5-5 1h-17l-13-3-13-7-12-11-9-14-4-12v-24l2-10 5-12v-4l-8-7-11-13-10-14-12-22-6-15-5-19-3-19v-39l3-20 5-17 6-16 8-16 9-14 8-10 9-10 5-5 11-10 14-10 14-8 17-8 24-8 13-3 22-3 5-1 2-5 8-16 10-21 10-16 10-14 9-11 11-12 14-14 14-11 14-10 18-11 16-8 20-9 24-8 25-6 20-3z" fill="#CFD0FE"/>
<path transform="translate(927,1121)" d="m0 0h45l35 5 22 5 20 6 15 6 15 7 17 9 13 8 12 8 16 13 11 9 13 13 7 8 10 14 10 13 12 19 9 16 10 23 9 27 5 20 4 22 2 23v22l-2 26-4 25-6 24-8 23-11 24-9 17-13 20-9 12-9 11-12 13-13 13-20 16-13 9-15 9-23 12-25 10-25 8-14 3h-4l-8-20-6-11-8-12-11-12-8-8-15-11-17-9-16-6-26-6-11-1-1-1-4-33-5-27-7-25-8-20-9-20-13-21-9-12-10-13-5-6-13-13-2-1v-2l-4-2-9-8-13-10-15-10-16-9-16-8-20-8-26-8-1-3 3-12 10-28 10-21 15-25 9-13 9-11 13-15 18-18 10-8 12-9 16-11 15-9 16-8 15-7 33-11 22-5z" fill="#FDCC74"/>
<path transform="translate(1533,197)" d="m0 0h9l25 9 25 12 18 11 17 12 13 11 12 11 11 11 9 11 13 17 11 18 9 17 10 25 6 20 6 29 2 15 1 22 1 2 21 2 12 3 12 4 16 7 16 10 9 7 11 10 9 11 9 14 8 17 5 16 3 16 1 7v21l-3 17-5 16-7 17-7 12-10 13-19 19-13 9 1 6 6 15 3 11 1 8v9l-3 12-6 12-7 9-10 9-16 8-11 3h-19l-14-4-14-8-11-11-6-10-4-10-1-5v-25l3-11-13 1h-130l-5-2-2-6-3-1-6-7-14-14-14-19-10-15-12-21-10-19-9-20-9-24-6-20-6-26-3-24-1-17v-65l4-33 6-29 5-17 4-12 11-28 9-19 8-15 11-18 10-14 12-16 13-14z" fill="#ECEBFE"/>
<path transform="translate(670,1338)" d="m0 0 10 2 30 10 18 8 18 10 11 7 14 10 14 11 7 6v2l4 2 8 8 7 8 8 9 8 11 10 15 9 15 12 27 8 24 5 21 5 33 2 18 16 2 21 5 20 8 16 9 14 11 15 15 9 13 6 10 5 11 4 11v2l3 1h-2v6h2l2 12 1 11v17l-1 11-2 7-6 20-9 19-8 12-11 13-15 14-13 9-4 1v2l-7 3-24 8-5 2-17 2h-197l-2-2-1-4-12-13-10-10-8-10-13-18-9-15-9-16-8-16-8-17-10-26-7-23-6-29-3-30-1-18v-37l3-34 5-30 6-24 7-21 11-27 12-25 13-22 13-19 12-16 11-14-1-4-9-1v-2z" fill="#ECEBFD"/>
<path transform="translate(1392,1742)" d="m0 0h419l16 3 12 5 12 8v2l4 2 6 7 7 14 3 11 1 14-2 11-5 14-9 13-11 10-11 6-14 4-18 1h-388l-25-1-10-2-16-7-11-9-9-12-6-13-2-9v-16l3-14 7-13 9-11 10-8 14-7z" fill="#ECEBFE"/>
<path transform="translate(1481,1247)" d="m0 0h292l37 1 16 3 12 5 11 7 10 10 8 14 4 13v20l-5 15-6 10-8 10-12 9-15 6-15 2-58 1h-223l-51-1-14-2-14-5-10-7-8-7-7-10-5-11-3-14v-11l3-14 7-14 11-13 11-8 12-6 9-2z" fill="#ECECFE"/>
<path transform="translate(1020,1690)" d="m0 0 4 1v56l2 37 4 31 6 31 4 15 7 24 9 24 8 19 8 16 14 25 9 14 12 17 12 15 11 14 10 11 6 8h-343l3-5 30-28 16-16 1-2h2l2-4 13-14 11-14 12-16 17-26 13-23 14-29 9-21 1-8 13-10 16-15 10-13 9-16 5-11 6-20 2-7 1-11v-17l-2-18v-5h-2v-6z" fill="#34CFFA"/>
<path transform="translate(1588,1494)" d="m0 0 220 1 17 3 13 5 11 7 10 10 8 14 4 13v20l-5 15-7 12-10 11-9 6-11 5-14 3-65 1h-140l-51-1-14-2-15-6-14-11-9-13-5-12-2-9v-19l4-13 8-13 11-12 14-9 12-4 6-1z" fill="#ECEBFE"/>
<path transform="translate(927,1121)" d="m0 0h45v1h-5l-1 4-11 12-8 10h-2l-2 4-11 13-15 20-7 11-10 16-6 12-10 19-11 27-9 27-7 26-5 26-4 32-1 15v35l2 34v11h-2l-6-11-12-19-10-13-12-15-13-13-2-1v-2l-4-2-9-8-13-10-15-10-16-9-16-8-20-8-26-8-1-3 3-12 10-28 10-21 15-25 9-13 9-11 13-15 18-18 10-8 12-9 16-11 15-9 16-8 15-7 33-11 22-5z" fill="#F6B562"/>
<path transform="translate(1142,613)" d="m0 0h11l11 7 8 7 11 14 7 10 9 16 6 14 4 16 1 15-1 4-7 16-6 9-8 9-13 9-15 5-5 1h-17l-13-3-13-7-12-11-9-14-4-12v-24l2-10 5-12v-5l3-3 12-20 9-12 11-12 10-6z" fill="#BAEEFF"/>
<path transform="translate(1528,841)" d="m0 0h11l9 4 11 10 12 16 7 11 8 14 7 18 2 9v17l-4 14-7 12-11 12-10 7-14 5-7 2h-19l-18-6-11-7-10-10-6-11-4-9-2-9v-15l4-18 5-11 10-18 11-15 10-12 10-7z" fill="#BAEEFF"/>
<path transform="translate(1763,928)" d="m0 0h7l12 6 10 9 8 10 10 14 11 21 6 17 2 16-2 13-5 12-9 13-8 8-14 8-12 4-5 1h-16l-15-4-13-7-10-9-7-10-6-13-2-10v-10l3-17 6-15 5-10 12-18 9-11 9-10 11-7z" fill="#BAEEFF"/>
<path transform="translate(1744,648)" d="m0 0 10 1 11 6 11 11 14 20 6 10 3 2 1 6 6 15 3 11 1 8v9l-3 12-6 12-7 9-10 9-16 8-11 3h-19l-14-4-14-8-11-11-6-10-4-10-1-5v-25l2-11 8-16 8-14 12-17 11-12 6-5z" fill="#BAEDFE"/>
<path transform="translate(949,886)" d="m0 0h13l9 4 11 9 11 8 12 6 10 3h16l14-4 11-6 10-8 11-9 7-3h14l10 4 9 8 5 10 1 4v9l-4 11-9 11-7 7-13 9-12 7-23 9-16 4-11 1h-9l-19-3-20-7-14-6-15-10-10-9-9-9-5-8-2-6v-11l4-10 7-8 10-6z" fill="#79674D"/>
<path transform="translate(1275,838)" d="m0 0h12l10 4 7 5 7 11 1 3 1 11v41l-1 12-6 12-7 7-8 4-3 1h-12l-9-3-8-6-6-9-3-12v-51l3-13 7-9 9-6z" fill="#79674D"/>
<path transform="translate(759,838)" d="m0 0h13l10 4 9 8 5 10 1 3 1 51-1 11-5 10-7 8-12 6-9 1-10-3-8-6-6-7-4-10-1-7 1-56 5-10 4-5 9-6z" fill="#79674D"/>
<path transform="translate(1459,1742)" d="m0 0h352l16 3 12 5 12 8v2l4 2 6 7 7 14 3 11 1 14-2 11-2 6-1-3 2-9v-15l-3-13-7-14-9-10-9-7-8-4-14-4-21-2-339-1z" fill="#BDE9FE"/>
<path transform="translate(1816,1743)" d="m0 0 14 3 14 7 7 5v2l4 2 6 7 7 14 3 11 1 14-2 11-2 6-1-3 2-9v-15l-3-13-7-14-9-10-9-7-8-4-14-4-8-1v-1z" fill="#C0E5FE"/>
<path transform="translate(1059,620)" d="m0 0 3 3 7 11 6 8 7 8 2 4 4 2 5 7v2l-4-1-11-12-11-15-8-14z" fill="#E7E7FE"/>
<path transform="translate(254,1820)" d="m0 0 9 4 5 4 6 3 5 5 4 2-1 3-1-2-4-1h-6l-9-6-3-5-5-5z" fill="#DDE7F9"/>
<path transform="translate(235,1804)" d="m0 0 9 6 6 6v2l-5-2-2-4-4-2-4-4z" fill="#ECEBFE"/>
</svg>
